<?xml version="1.0" standalone="no"?>
<!DOCTYPE svg PUBLIC "-//W3C//DTD SVG 20010904//EN"
 "http://www.w3.org/TR/2001/REC-SVG-20010904/DTD/svg10.dtd">
<svg version="1.0" xmlns="http://www.w3.org/2000/svg"
 width="512.000000pt" height="512.000000pt" viewBox="0 0 512.000000 512.000000"
 preserveAspectRatio="xMidYMid meet">

<g transform="translate(0.000000,512.000000) scale(0.100000,-0.100000)"
fill="#ffffff" stroke="none">
<path d="M4018 4848 c-41 -62 -98 -150 -127 -195 l-53 -83 -31 24 c-48 36
-106 62 -165 75 -74 15 -2089 16 -2164 0 -154 -32 -274 -152 -307 -307 -8 -38
-11 -546 -11 -1805 0 -1911 -3 -1811 56 -1916 13 -24 24 -47 24 -52 0 -4 -79
-129 -175 -277 -96 -148 -175 -278 -175 -290 0 -21 4 -22 98 -22 l97 1 153
238 153 238 42 -16 c37 -14 156 -16 1092 -19 758 -2 1067 0 1110 8 114 22 217
94 268 188 60 111 57 3 57 1919 0 1187 -3 1768 -11 1801 l-10 49 145 224 c81
123 146 233 146 245 0 13 -12 29 -27 39 -16 10 -32 24 -36 32 -4 7 -23 13 -42
13 -31 0 -37 -6 -107 -112z m-417 -438 c41 -11 82 -51 77 -74 -1 -8 -406 -634
-898 -1390 l-895 -1376 -232 0 -233 0 0 1358 c0 867 4 1370 10 1393 12 42 46
76 86 89 42 12 2040 12 2085 0z m96 -2837 c-2 -2 -361 -2 -799 -1 l-794 3 795
1227 796 1228 3 -1227 c1 -674 1 -1228 -1 -1230z m-1997 -284 c-16 -28 -260
-402 -271 -413 -5 -6 -9 80 -9 212 l0 222 145 0 c144 0 146 0 135 -21z m2000
-216 c0 -132 -5 -255 -10 -275 -14 -48 -59 -85 -113 -93 -23 -3 -491 -4 -1039
-3 l-998 3 196 303 196 302 884 0 884 0 0 -237z"/>
<path d="M2346 1111 c-39 -26 -55 -57 -56 -107 0 -53 34 -105 80 -121 47 -16
333 -16 380 0 71 25 103 126 61 191 -34 52 -50 55 -251 56 -166 0 -188 -2
-214 -19z"/>
<path d="M445 3601 c-55 -23 -180 -192 -263 -357 -128 -255 -192 -545 -179
-809 15 -297 113 -597 272 -836 84 -126 141 -185 186 -191 71 -11 132 27 149
93 15 53 5 80 -55 155 -195 245 -310 603 -291 912 16 281 114 546 281 766 65
86 75 106 75 140 0 93 -93 160 -175 127z"/>
<path d="M4569 3587 c-19 -12 -42 -40 -53 -61 -25 -51 -12 -92 57 -179 200
-251 311 -630 279 -954 -27 -267 -135 -546 -281 -721 -61 -73 -71 -92 -71
-137 0 -88 79 -147 164 -124 96 27 283 325 370 591 61 187 80 308 80 513 0
156 -4 197 -27 306 -35 164 -73 274 -152 434 -69 140 -178 295 -234 332 -43
29 -89 29 -132 0z"/>
<path d="M778 3245 c-37 -20 -118 -132 -166 -229 -149 -304 -160 -623 -32
-955 36 -92 138 -252 183 -285 38 -28 106 -28 144 0 39 29 67 87 59 127 -3 18
-25 57 -48 87 -54 72 -111 194 -139 300 -33 122 -33 310 0 430 30 108 81 220
130 284 51 69 61 89 61 128 0 94 -109 158 -192 113z"/>
<path d="M4213 3239 c-41 -26 -67 -81 -60 -126 4 -19 24 -58 45 -86 21 -29 48
-68 59 -87 62 -106 113 -300 113 -430 0 -167 -64 -368 -161 -502 -48 -68 -59
-90 -59 -123 0 -81 72 -144 147 -130 117 22 274 306 318 575 46 286 -28 611
-189 828 -74 100 -143 126 -213 81z"/>
</g>
</svg>
